<svg width="256" height="256" viewBox="0 0 256 256" fill="none" xmlns="http://www.w3.org/2000/svg">
<path fill-rule="evenodd" clip-rule="evenodd" d="M0 0H256V256H0V0Z" fill="url(#paint0_linear)"/>
<path fill-rule="evenodd" clip-rule="evenodd" d="M60.7921 75.0001C46.339 74.9589 26.9714 85.292 28.0426 111.19C29.7163 151.656 66.5827 155.41 81.3211 155.735C82.9381 163.325 100.279 189.504 113.117 190.884H169.365C203.092 188.359 228.349 76.1915 209.625 75.7653C178.663 77.4046 160.307 78.2293 144.568 78.3679V113.38L139.662 110.943L139.63 78.389C122.634 78.3826 107.561 77.5457 80.7054 76.0546L80.7014 76.0544C79.0119 75.9606 77.2757 75.8642 75.4894 75.7653C73.8441 75.7477 71.9167 75.6034 69.7976 75.4447C67.0518 75.239 63.9842 75.0092 60.7921 75.0001ZM64.5638 89.3204C66.6097 110.05 69.9472 122.179 76.703 140.709C59.4699 138.431 44.8043 132.8 42.1069 111.778C40.6672 100.558 45.7259 88.8146 64.5638 89.3204ZM133.366 110.539L165.771 126.284C169.894 128.288 171.612 133.254 169.609 137.378L153.864 169.782C151.86 173.905 146.894 175.624 142.77 173.62L110.366 157.875C106.242 155.872 104.524 150.905 106.527 146.782L122.273 114.377C124.276 110.254 129.243 108.536 133.366 110.539Z" fill="white"/>
<path d="M142.897 115.105L139.261 113.33L135.027 122.001C134.401 121.988 133.762 122.088 133.137 122.312C130.404 123.296 128.985 126.31 129.969 129.043C130.176 129.618 130.473 130.134 130.837 130.582L123.595 145.415C123.015 145.419 122.425 145.52 121.848 145.728C119.114 146.712 117.696 149.725 118.68 152.459C119.664 155.192 122.677 156.61 125.411 155.626C128.144 154.643 129.563 151.629 128.579 148.896C128.307 148.14 127.88 147.485 127.347 146.954L134.405 132.498C135.158 132.573 135.94 132.485 136.7 132.211C137.333 131.983 137.896 131.647 138.375 131.23C138.699 131.383 139.015 131.533 139.323 131.678C141.612 132.76 143.442 133.625 144.933 134.455C147.461 135.862 148.23 136.777 148.465 137.665C148.738 138.694 148.497 140.358 147.071 143.785C146.036 146.271 144.519 149.382 142.527 153.467L142.527 153.468C142.48 153.563 142.433 153.659 142.386 153.755C141.734 153.731 141.066 153.829 140.414 154.064C137.681 155.048 136.263 158.062 137.246 160.795C138.23 163.528 141.244 164.947 143.977 163.963C146.711 162.979 148.129 159.965 147.145 157.232C146.901 156.553 146.531 155.955 146.072 155.455C146.089 155.421 146.105 155.387 146.122 155.352C148.137 151.22 149.731 147.951 150.817 145.344C152.224 141.964 153.048 139.12 152.387 136.626C151.69 133.992 149.53 132.369 146.906 130.909C145.32 130.026 143.277 129.06 140.856 127.914C140.631 127.807 140.402 127.699 140.17 127.589C140.214 126.894 140.119 126.178 139.868 125.48C139.613 124.771 139.22 124.149 138.732 123.636L142.897 115.105Z" fill="white"/>
<defs>
<linearGradient id="paint0_linear" x1="128" y1="0" x2="128" y2="256" gradientUnits="userSpaceOnUse">
<stop stop-color="#8AB11A"/>
<stop offset="1" stop-color="#609926"/>
<stop offset="1" stop-color="#58921D"/>
</linearGradient>
</defs>
</svg>
