<svg width="256" height="256" viewBox="0 0 256 256" fill="none" xmlns="http://www.w3.org/2000/svg">
<path fill-rule="evenodd" clip-rule="evenodd" d="M0 0H256V256H0V0Z" fill="#41BDF5"/>
<mask id="mask0" mask-type="alpha" maskUnits="userSpaceOnUse" x="40" y="50" width="177" height="157">
<path d="M59.6135 202.694V143.237H44.1521C43.3338 143.237 42.5339 142.995 41.8526 142.542C41.1714 142.089 40.6392 141.445 40.3228 140.69C40.0065 139.935 39.9202 139.104 40.0747 138.301C40.2292 137.497 40.6177 136.757 41.1913 136.174L124.39 51.5514C126.399 49.5075 129.685 49.4795 131.73 51.4891L131.783 51.5425L175.205 95.4956V87.3553C175.205 86.9009 175.295 86.4509 175.469 86.0311C175.643 85.6112 175.897 85.2298 176.219 84.9084C176.54 84.5871 176.922 84.3322 177.341 84.1583C177.761 83.9844 178.211 83.8949 178.666 83.8949H193.085C193.539 83.8949 193.989 83.9843 194.409 84.1582C194.829 84.3321 195.211 84.587 195.532 84.9083C195.853 85.2296 196.108 85.6111 196.282 86.031C196.456 86.4508 196.546 86.9009 196.546 87.3553V117.225L215.039 136.185C215.609 136.77 215.995 137.51 216.147 138.313C216.298 139.115 216.21 139.945 215.893 140.698C215.576 141.451 215.043 142.093 214.363 142.545C213.682 142.996 212.883 143.237 212.066 143.237H196.546V202.694C196.546 203.612 196.181 204.492 195.532 205.141C194.883 205.79 194.003 206.154 193.085 206.154H63.074C62.1562 206.154 61.276 205.79 60.6271 205.141C59.9781 204.492 59.6135 203.612 59.6135 202.694ZM151.437 130.06C151.866 129.159 152.088 128.173 152.087 127.174C152.087 123.478 149.101 120.482 145.418 120.482C141.735 120.482 138.75 123.478 138.75 127.174C138.75 130.871 141.735 133.867 145.419 133.867C146.448 133.867 147.423 133.633 148.293 133.215L157.867 142.823V152.129L145.863 164.176V155.349C147.165 154.885 148.291 154.029 149.088 152.899C149.884 151.769 150.31 150.42 150.309 149.038C150.309 145.341 147.323 142.345 143.64 142.345C139.957 142.345 136.971 145.341 136.971 149.038C136.971 151.952 138.827 154.431 141.417 155.349V168.637L130.302 179.792V114.267L139.431 105.106C140.328 105.536 141.311 105.759 142.306 105.758C145.989 105.758 148.975 102.762 148.975 99.065C148.975 95.3688 145.989 92.3724 142.306 92.3724C138.623 92.3724 135.637 95.3688 135.637 99.065C135.637 100.098 135.871 101.077 136.287 101.951L128.08 110.188L119.872 101.951C120.301 101.049 120.523 100.063 120.521 99.065C120.521 95.3688 117.536 92.3724 113.853 92.3724C110.17 92.3724 107.184 95.3688 107.184 99.065C107.184 102.762 110.17 105.758 113.853 105.758C114.883 105.758 115.857 105.524 116.728 105.106L125.856 114.267V161.052L109.852 144.99V132.148C111.154 131.684 112.28 130.828 113.076 129.698C113.872 128.567 114.299 127.219 114.298 125.836C114.298 122.14 111.312 119.143 107.629 119.143C103.946 119.143 100.96 122.14 100.96 125.836C100.96 128.75 102.816 131.229 105.406 132.148V140.528L92.9577 128.035V115.639C94.2597 115.175 95.3861 114.319 96.1822 113.189C96.9782 112.059 97.4049 110.71 97.4035 109.327C97.4035 105.631 94.4178 102.634 90.7345 102.634C87.0517 102.634 84.0655 105.631 84.0655 109.327C84.0655 112.242 85.9216 114.72 88.5118 115.639V129.883L102.262 143.683H94.3564C93.4408 141.084 90.9708 139.221 88.0669 139.221C84.3841 139.221 81.3979 142.218 81.3979 145.914C81.3979 149.611 84.3841 152.607 88.0669 152.607C90.9708 152.607 93.4413 150.745 94.3564 148.145H106.708L125.856 167.362V200.763L115.631 190.501V177.658C116.933 177.194 118.06 176.338 118.856 175.208C119.652 174.078 120.079 172.729 120.077 171.346C120.077 167.65 117.092 164.654 113.408 164.654C109.725 164.654 106.739 167.65 106.739 171.346C106.739 174.261 108.595 176.74 111.186 177.658V186.039L96.3086 171.109C96.738 170.208 96.9601 169.222 96.9586 168.223C96.9586 164.527 93.9734 161.531 90.2896 161.531C86.6068 161.531 83.6211 164.527 83.6211 168.223C83.6211 171.92 86.6068 174.916 90.2901 174.916C91.3195 174.916 92.2948 174.682 93.165 174.264L108.042 189.194H100.136C99.2205 186.594 96.7504 184.732 93.8466 184.732C90.1637 184.732 87.1776 187.728 87.1776 191.425C87.1776 195.121 90.1637 198.117 93.8466 198.117C96.7504 198.117 99.2205 196.255 100.136 193.655H112.488L124.936 206.149H131.223L144.116 193.21H156.023C156.939 195.809 159.409 197.671 162.313 197.671C165.995 197.671 168.982 194.675 168.982 190.978C168.982 187.282 165.995 184.286 162.313 184.286C159.409 184.286 156.939 186.148 156.023 188.748H142.275L130.303 200.763V186.103L144.561 171.793H167.583C168.498 174.393 170.969 176.255 173.872 176.255C177.555 176.255 180.541 173.259 180.541 169.562C180.541 165.866 177.555 162.869 173.872 162.869C170.969 162.869 168.498 164.732 167.583 167.332H149.006L162.312 153.978V142.823L171.885 133.215C172.782 133.646 173.765 133.869 174.76 133.868C178.443 133.868 181.429 130.871 181.429 127.175C181.429 123.479 178.443 120.482 174.76 120.482C171.077 120.482 168.091 123.479 168.091 127.175C168.091 128.208 168.325 129.187 168.741 130.061L162.312 136.513V116.085C163.614 115.621 164.741 114.765 165.537 113.635C166.333 112.504 166.759 111.156 166.758 109.773C166.758 106.077 163.772 103.08 160.089 103.08C156.406 103.08 153.42 106.077 153.42 109.773C153.42 112.687 155.276 115.166 157.866 116.085V136.512L151.437 130.06L151.437 130.06ZM93.8466 194.102C92.3735 194.102 91.179 192.903 91.179 191.425C91.179 189.946 92.3735 188.748 93.8466 188.748C95.3201 188.748 96.5142 189.946 96.5142 191.425C96.5142 192.903 95.3201 194.102 93.8466 194.102ZM113.409 174.023C111.935 174.023 110.741 172.825 110.741 171.346C110.741 169.868 111.935 168.67 113.408 168.67C114.882 168.67 116.076 169.868 116.076 171.346C116.076 172.825 114.882 174.023 113.408 174.023H113.409ZM90.2901 170.9C88.8166 170.9 87.6225 169.702 87.6225 168.223C87.6225 166.745 88.8166 165.546 90.2901 165.546C91.7631 165.546 92.9577 166.745 92.9577 168.223C92.9577 169.702 91.7631 170.9 90.2901 170.9ZM88.0669 148.591C86.5939 148.591 85.3998 147.393 85.3998 145.914C85.3998 144.436 86.5939 143.237 88.0669 143.237C89.5404 143.237 90.7345 144.436 90.7345 145.914C90.7345 147.393 89.5404 148.591 88.0669 148.591ZM143.64 151.715C142.167 151.715 140.973 150.516 140.973 149.038C140.973 147.559 142.167 146.36 143.64 146.36C145.113 146.36 146.307 147.559 146.307 149.038C146.307 150.516 145.113 151.715 143.64 151.715ZM173.871 172.239C172.399 172.239 171.204 171.04 171.204 169.562C171.204 168.083 172.398 166.885 173.871 166.885C175.345 166.885 176.539 168.083 176.539 169.562C176.539 171.04 175.345 172.239 173.871 172.239ZM162.313 193.655C160.839 193.655 159.645 192.457 159.645 190.978C159.645 189.5 160.839 188.301 162.313 188.301C163.786 188.301 164.98 189.5 164.98 190.978C164.98 192.457 163.786 193.655 162.313 193.655ZM174.761 129.852C173.288 129.852 172.093 128.653 172.093 127.174C172.093 125.696 173.288 124.498 174.761 124.498C176.234 124.498 177.428 125.696 177.428 127.174C177.428 128.653 176.234 129.852 174.761 129.852ZM160.089 112.451C158.616 112.451 157.422 111.252 157.422 109.774C157.422 108.295 158.616 107.096 160.089 107.096C161.563 107.096 162.757 108.295 162.757 109.774C162.757 111.252 161.563 112.451 160.089 112.451ZM142.306 101.742C140.833 101.742 139.639 100.544 139.639 99.065C139.639 97.5866 140.833 96.3881 142.306 96.3881C143.78 96.3881 144.974 97.5866 144.974 99.065C144.974 100.544 143.78 101.742 142.306 101.742V101.742ZM113.853 101.742C112.38 101.742 111.186 100.544 111.186 99.065C111.186 97.5866 112.38 96.3881 113.853 96.3881C115.326 96.3881 116.52 97.5866 116.52 99.065C116.52 100.544 115.326 101.742 113.853 101.742V101.742ZM90.7345 112.004C89.2615 112.004 88.0669 110.806 88.0669 109.327C88.0669 107.849 89.2615 106.65 90.7345 106.65C92.2076 106.65 93.4021 107.849 93.4021 109.327C93.4021 110.806 92.2076 112.004 90.7345 112.004ZM107.629 128.513C106.156 128.513 104.961 127.315 104.961 125.836C104.961 124.357 106.156 123.159 107.629 123.159C109.102 123.159 110.296 124.357 110.296 125.836C110.296 127.315 109.102 128.513 107.629 128.513ZM145.418 129.852C143.945 129.852 142.751 128.653 142.751 127.174C142.751 125.696 143.945 124.498 145.418 124.498C146.892 124.498 148.086 125.696 148.086 127.174C148.086 128.653 146.892 129.852 145.418 129.852Z" fill="white"/>
</mask>
<g mask="url(#mask0)">
<path fill-rule="evenodd" clip-rule="evenodd" d="M40.0199 49.9941H216.199V206.153H40.0199V49.9941Z" fill="white"/>
</g>
</svg>
